<svg width="10" height="14" viewBox="0 0 10 14" fill="none" xmlns="http://www.w3.org/2000/svg">
<path d="M4.62796 5.17135C6.32545 5.17135 7.57563 5.55805 8.3785 6.33146C9.19283 7.10487 9.6 8.14045 9.6 9.4382C9.6 10.2772 9.41649 11.044 9.04946 11.7388C8.68244 12.4204 8.12043 12.971 7.36344 13.3904C6.61792 13.7968 5.69462 14 4.59355 14C3.7448 14 2.90753 13.8755 2.08172 13.6264C1.26738 13.3642 0.573477 12.9972 0 12.5253L1.10108 10.0871C1.55986 10.4803 2.08746 10.7884 2.68387 11.0112C3.28029 11.221 3.89391 11.3258 4.52473 11.3258C5.22437 11.3258 5.77491 11.1685 6.17634 10.8539C6.57778 10.5393 6.7785 10.1002 6.7785 9.53652C6.7785 8.94663 6.56631 8.50094 6.14194 8.19944C5.72903 7.89794 5.00645 7.74719 3.97419 7.74719H0.894624L1.51398 0H8.86022V2.55618H3.83656L3.64731 5.17135H4.62796Z" fill="#8B8DA0"/>
</svg>
