<svg width="24" height="24" viewBox="0 0 24 24" fill="none" xmlns="http://www.w3.org/2000/svg">
<path fill-rule="evenodd" clip-rule="evenodd" d="M16.8182 3C16.8182 2.44772 16.3705 2 15.8182 2C15.2659 2 14.8182 2.44772 14.8182 3V3.81818H9.54549V3C9.54549 2.44772 9.09777 2 8.54549 2C7.9932 2 7.54549 2.44772 7.54549 3V3.81818H5.81821C4.26177 3.81818 3.00003 5.07992 3.00003 6.63636V10.2727V19.3636C3.00003 20.9201 4.26177 22.1818 5.81821 22.1818H18.5455C20.1019 22.1818 21.3637 20.9201 21.3637 19.3636V10.2727V6.63636C21.3637 5.07992 20.1019 3.81818 18.5455 3.81818H16.8182V3ZM19.3637 9.27273V6.63636C19.3637 6.18449 18.9974 5.81818 18.5455 5.81818H16.8182V6.63636C16.8182 7.18865 16.3705 7.63636 15.8182 7.63636C15.2659 7.63636 14.8182 7.18865 14.8182 6.63636V5.81818H9.54549V6.63636C9.54549 7.18865 9.09777 7.63636 8.54549 7.63636C7.9932 7.63636 7.54549 7.18865 7.54549 6.63636V5.81818H5.81821C5.36634 5.81818 5.00003 6.18449 5.00003 6.63636V9.27273H19.3637ZM5.00003 11.2727H19.3637V19.3636C19.3637 19.8155 18.9974 20.1818 18.5455 20.1818H5.81821C5.36634 20.1818 5.00003 19.8155 5.00003 19.3636V11.2727Z" fill="#8B8DA0"/>
</svg>
