<svg width="18" height="18" viewBox="0 0 18 18" fill="none" xmlns="http://www.w3.org/2000/svg">
<path fill-rule="evenodd" clip-rule="evenodd" d="M9 16C12.866 16 16 12.866 16 9C16 5.13401 12.866 2 9 2C5.13401 2 2 5.13401 2 9C2 12.866 5.13401 16 9 16ZM9 18C13.9706 18 18 13.9706 18 9C18 4.02944 13.9706 0 9 0C4.02944 0 0 4.02944 0 9C0 13.9706 4.02944 18 9 18Z" fill="#00A699"/>
<path fill-rule="evenodd" clip-rule="evenodd" d="M13.674 5.26124C14.082 5.63346 14.111 6.26596 13.7388 6.67397L8.26509 12.674C8.07561 12.8817 7.80746 13 7.52632 13C7.24518 13 6.97703 12.8817 6.78756 12.674L4.26124 9.90474C3.88902 9.49673 3.91804 8.86423 4.32604 8.49201C4.73405 8.11979 5.36655 8.1488 5.73877 8.55681L7.52632 10.5162L12.2612 5.32604C12.6335 4.91804 13.266 4.88902 13.674 5.26124Z" fill="#00A699"/>
</svg>
