<svg width="18" height="18" viewBox="0 0 18 18" fill="none" xmlns="http://www.w3.org/2000/svg">
<path fill-rule="evenodd" clip-rule="evenodd" d="M9 16C12.866 16 16 12.866 16 9C16 5.13401 12.866 2 9 2C5.13401 2 2 5.13401 2 9C2 12.866 5.13401 16 9 16ZM9 18C13.9706 18 18 13.9706 18 9C18 4.02944 13.9706 0 9 0C4.02944 0 0 4.02944 0 9C0 13.9706 4.02944 18 9 18Z" fill="#FF385C"/>
<path fill-rule="evenodd" clip-rule="evenodd" d="M5.2929 5.29289C5.68343 4.90237 6.3166 4.90237 6.70712 5.2929L8.99997 7.58577L11.2928 5.2929C11.6833 4.90237 12.3165 4.90237 12.707 5.29289C13.0976 5.68341 13.0976 6.31658 12.707 6.7071L10.4142 9L12.707 11.2929C13.0976 11.6834 13.0976 12.3166 12.707 12.7071C12.3165 13.0976 11.6833 13.0976 11.2928 12.7071L8.99997 10.4142L6.70711 12.7071C6.31659 13.0976 5.68342 13.0976 5.2929 12.7071C4.90237 12.3166 4.90237 11.6834 5.29289 11.2929L7.58576 9L5.2929 6.7071C4.90237 6.31658 4.90238 5.68341 5.2929 5.29289Z" fill="#FF385C"/>
</svg>
