<svg width="16" height="16" viewBox="0 0 16 16" fill="none" xmlns="http://www.w3.org/2000/svg">
<path fillRule="evenodd" clipRule="evenodd" d="M5.94446 1.61992C6.09172 1.95738 5.93754 2.35032 5.60008 2.49758C4.70181 2.88957 3.91324 3.49564 3.30331 4.2628C2.69338 5.02996 2.28066 5.93485 2.10124 6.89836C1.92182 7.86188 1.98115 8.85467 2.27406 9.78995C2.56697 10.7252 3.08453 11.5745 3.78149 12.2636C4.47845 12.9526 5.3336 13.4605 6.27217 13.7427C7.21073 14.0249 8.20414 14.0729 9.16554 13.8825C10.1269 13.692 11.0271 13.269 11.7872 12.6504C12.5473 12.0317 13.1444 11.2363 13.5261 10.3336C13.6695 9.99447 14.0606 9.8358 14.3998 9.9792C14.7389 10.1226 14.8975 10.5138 14.7541 10.8529C14.2876 11.9562 13.5579 12.9284 12.6288 13.6845C11.6998 14.4406 10.5996 14.9577 9.42459 15.1904C8.24954 15.4231 7.03538 15.3644 5.88824 15.0195C4.7411 14.6746 3.69593 14.0539 2.84408 13.2118C1.99224 12.3696 1.35966 11.3316 1.00167 10.1884C0.643667 9.04531 0.571145 7.8319 0.790438 6.65427C1.00973 5.47665 1.51416 4.37067 2.25963 3.43303C3.0051 2.49539 3.96891 1.75464 5.0668 1.27554C5.40426 1.12828 5.7972 1.28246 5.94446 1.61992Z" fill="#8B8DA0"/>
<path fillRule="evenodd" clipRule="evenodd" d="M7.52851 0.861766C7.65354 0.736742 7.82311 0.666504 7.99992 0.666504C8.96295 0.666504 9.91654 0.856186 10.8063 1.22472C11.696 1.59326 12.5044 2.13342 13.1854 2.81439C13.8663 3.49535 14.4065 4.30377 14.775 5.19349C15.1436 6.08321 15.3333 7.03681 15.3333 7.99984C15.3333 8.36803 15.0348 8.6665 14.6666 8.6665H7.99992C7.63173 8.6665 7.33325 8.36803 7.33325 7.99984V1.33317C7.33325 1.15636 7.40349 0.98679 7.52851 0.861766ZM8.66659 2.03699V7.33317H13.9628C13.9003 6.77411 13.7593 6.2255 13.5432 5.70374C13.2417 4.97578 12.7997 4.31435 12.2426 3.7572C11.6854 3.20004 11.024 2.75809 10.296 2.45656C9.77426 2.24044 9.22564 2.09949 8.66659 2.03699Z" fill="#8B8DA0"/>
</svg>
