<svg width="16" height="17" viewBox="0 0 16 17" fill="none" xmlns="http://www.w3.org/2000/svg">
<path fill-rule="evenodd" clip-rule="evenodd" d="M1.42716 8.5C1.50002 8.62591 1.59662 8.78637 1.71628 8.97165C2.02362 9.44754 2.47878 10.0804 3.06969 10.7107C4.26368 11.9843 5.933 13.1667 8 13.1667C10.067 13.1667 11.7363 11.9843 12.9303 10.7107C13.5212 10.0804 13.9764 9.44754 14.2837 8.97165C14.4034 8.78637 14.5 8.62591 14.5728 8.5C14.5 8.37409 14.4034 8.21363 14.2837 8.02835C13.9764 7.55246 13.5212 6.9196 12.9303 6.28929C11.7363 5.01571 10.067 3.83333 8 3.83333C5.933 3.83333 4.26368 5.01571 3.06969 6.28929C2.47878 6.9196 2.02362 7.55246 1.71628 8.02835C1.59662 8.21363 1.50002 8.37409 1.42716 8.5ZM15.3333 8.5C15.9296 8.20186 15.9295 8.20163 15.9294 8.20139L15.9283 8.19925L15.926 8.19469L15.9184 8.17988C15.9121 8.16752 15.9031 8.15021 15.8915 8.12829C15.8683 8.08447 15.8346 8.02215 15.7907 7.94399C15.7028 7.78776 15.5734 7.56768 15.4038 7.30498C15.0653 6.78088 14.5621 6.0804 13.903 5.37737C12.597 3.98429 10.5997 2.5 8 2.5C5.40033 2.5 3.40299 3.98429 2.09698 5.37737C1.43789 6.0804 0.93471 6.78088 0.596224 7.30498C0.426567 7.56768 0.297195 7.78776 0.209314 7.94399C0.165349 8.02215 0.131693 8.08447 0.108502 8.12829C0.0969045 8.15021 0.0879168 8.16752 0.0815586 8.17988L0.0739933 8.19469L0.0716926 8.19925L0.0709134 8.2008C0.0707909 8.20104 0.0703819 8.20186 0.666667 8.5L0.0703819 8.20186C-0.0234606 8.38954 -0.0234606 8.61046 0.0703819 8.79814L0.666667 8.5C0.0703819 8.79814 0.0702594 8.7979 0.0703819 8.79814L0.0716926 8.80075L0.0739933 8.80531L0.0815586 8.82012C0.0879168 8.83248 0.0969045 8.84979 0.108502 8.87171C0.131693 8.91553 0.165349 8.97785 0.209314 9.05601C0.297195 9.21224 0.426567 9.43232 0.596224 9.69502C0.93471 10.2191 1.43789 10.9196 2.09698 11.6226C3.40299 13.0157 5.40033 14.5 8 14.5C10.5997 14.5 12.597 13.0157 13.903 11.6226C14.5621 10.9196 15.0653 10.2191 15.4038 9.69502C15.5734 9.43232 15.7028 9.21224 15.7907 9.05601C15.8346 8.97785 15.8683 8.91553 15.8915 8.87171C15.9031 8.84979 15.9121 8.83248 15.9184 8.82012L15.926 8.80531L15.9283 8.80075L15.9291 8.7992C15.9292 8.79896 15.9296 8.79814 15.3333 8.5ZM15.3333 8.5L15.9296 8.79814C16.0235 8.61046 16.0232 8.38907 15.9294 8.20139L15.3333 8.5Z" fill="white"/>
<path fill-rule="evenodd" clip-rule="evenodd" d="M7.99992 7.16683C7.26354 7.16683 6.66659 7.76378 6.66659 8.50016C6.66659 9.23654 7.26354 9.8335 7.99992 9.8335C8.7363 9.8335 9.33325 9.23654 9.33325 8.50016C9.33325 7.76378 8.7363 7.16683 7.99992 7.16683ZM5.33325 8.50016C5.33325 7.0274 6.52716 5.8335 7.99992 5.8335C9.47268 5.8335 10.6666 7.0274 10.6666 8.50016C10.6666 9.97292 9.47268 11.1668 7.99992 11.1668C6.52716 11.1668 5.33325 9.97292 5.33325 8.50016Z" fill="white"/>
</svg>
