<svg width="18" height="15" viewBox="0 0 18 15" fill="none" xmlns="http://www.w3.org/2000/svg">
<path d="M13.3212 8.7697L13.3908 9.1875H13.8144H17.5V13.8125H11.8125C10.8282 13.8125 9.95168 13.3385 9.3998 12.6037L9.00001 12.0714L8.60021 12.6036C8.04829 13.3385 7.17181 13.8125 6.1875 13.8125H0.5V9.1875H4.18563H4.6092L4.67883 8.7697L5.77507 2.19204C5.77507 2.19204 5.77507 2.19203 5.77507 2.19203C5.91451 1.35548 6.62922 0.75 7.47735 0.75C7.93303 0.75 8.34764 0.927569 8.65758 1.21886L8.99998 1.54066L9.3424 1.21887C9.6524 0.927561 10.067 0.75 10.5227 0.75C11.3707 0.75 12.0855 1.35547 12.2249 2.19206L12.2249 2.19207L13.3212 8.7697ZM0.90625 12.9062V13.4062H1.40625H6.1875C7.62675 13.4062 8.79688 12.2361 8.79688 10.7969V2.47578C8.79688 1.74774 8.20539 1.15625 7.47735 1.15625C6.83066 1.15625 6.28211 1.62097 6.1758 2.25886C6.1758 2.25886 6.1758 2.25886 6.1758 2.25887L4.9533 9.59375H1.40625H0.90625V10.0938V12.9062ZM16.5938 13.4062H17.0938V12.9062V10.0938V9.59375H16.5938H13.0467L11.8242 2.25887C11.7179 1.62097 11.1693 1.15625 10.5227 1.15625C9.79461 1.15625 9.20312 1.74774 9.20312 2.47578V10.7969C9.20312 12.2361 10.3732 13.4062 11.8125 13.4062H16.5938Z" stroke="#555768"/>
</svg>
