<svg width="105" height="36" viewBox="0 0 105 36" fill="none" xmlns="http://www.w3.org/2000/svg">
<path fillRule="evenodd" clipRule="evenodd" d="M24.2254 6.26144C24.2254 8.63426 22.6913 10.7655 20.5733 11.2344C20.0438 11.3481 19.0595 11.2841 18.6115 11.1705C15.8418 10.4458 14.4977 9.32337 14.3823 6.26854C14.3823 4.81928 14.9593 3.5121 15.8825 2.58144C15.8282 1.95627 15.6517 1.10376 16.0387 0.734335C17.9937 -1.1696 24.8432 0.613562 24.2254 6.26144ZM16.9008 1.89233L17.1384 2.70221C14.7828 4.91874 14.9661 7.46916 16.2898 8.94684C16.6904 9.39441 17.1927 9.69989 17.7901 9.92013C18.6793 10.2469 19.7315 10.3464 20.5597 10.1404C21.7409 9.84908 22.603 8.86159 22.9967 7.68229C23.6756 5.65047 23.2343 3.98098 22.1075 2.71642C21.1164 1.60816 18.978 0.684605 17.505 1.12507C17.0434 1.27426 16.8058 1.38082 16.9008 1.89233Z" fill="#FF385C"/>
<path fillRule="evenodd" clipRule="evenodd" d="M18.4063 0.323148C17.5206 0.334811 16.774 0.567622 16.3269 0.98981L16.3258 0.990931C16.1862 1.12017 16.1307 1.35444 16.1332 1.67749C16.1349 1.89245 16.1605 2.11508 16.1859 2.33511C16.1984 2.44282 16.2107 2.54992 16.2201 2.65518L16.2268 2.7292L16.1726 2.78217C15.2788 3.65585 14.7187 4.88405 14.7179 6.24778C14.7752 7.70777 15.134 8.67868 15.7949 9.37151C16.4599 10.0685 17.452 10.5071 18.829 10.8565C19.0378 10.9078 19.3833 10.9501 19.746 10.9653C20.1099 10.9807 20.4718 10.9679 20.716 10.9172C22.7474 10.4807 24.2427 8.48704 24.2427 6.24388V6.23516L24.2436 6.22649C24.5439 3.56431 23.0357 1.81742 21.2025 0.953142C20.2838 0.519988 19.2878 0.311541 18.4063 0.323148ZM24.5782 6.25262C24.8925 3.43314 23.2807 1.57355 21.3503 0.663404C20.3862 0.208883 19.3382 -0.0118422 18.4017 0.000489352C17.4698 0.0127608 16.6246 0.25683 16.0924 0.759045C15.8449 0.988693 15.795 1.3476 15.7976 1.6799C15.7994 1.91132 15.8285 2.16421 15.8548 2.39305C15.8634 2.46853 15.8718 2.5414 15.8788 2.61002C14.9555 3.54 14.3823 4.82782 14.3823 6.25078V6.2538L14.3824 6.25682C14.4411 7.76269 14.8133 8.81988 15.5477 9.58964C16.2784 10.3556 17.3466 10.8142 18.7439 11.1687L18.7451 11.169C18.9852 11.228 19.3567 11.2719 19.7314 11.2877C20.1051 11.3034 20.5012 11.2921 20.7874 11.2325L20.7885 11.2322C22.9974 10.758 24.5744 8.61584 24.5782 6.25262ZM20.2236 1.31202C21.0881 1.62477 21.8964 2.13154 22.4143 2.6931L22.4145 2.69332C23.5839 3.96581 24.0372 5.6479 23.3389 7.67484C22.9318 8.8572 22.0329 9.8686 20.779 10.1685C19.9101 10.3781 18.8212 10.2756 17.9055 9.94932L17.9054 9.94926C17.2876 9.72843 16.759 9.41864 16.3355 8.95965C14.9572 7.46756 14.7811 4.92866 17.1215 2.73768L16.9095 2.03685L16.908 2.02884C16.8558 1.75626 16.8866 1.54315 17.0452 1.3835C17.1852 1.24256 17.405 1.17019 17.6262 1.10087L17.628 1.10031L17.6298 1.09979C18.4164 0.871716 19.3611 0.999974 20.2236 1.31202ZM17.7284 1.40823C18.4172 1.20912 19.2805 1.31558 20.1055 1.61404C20.9291 1.91203 21.6881 2.39208 22.1631 2.90706C23.2514 4.0914 23.682 5.65287 23.0203 7.57339C22.6386 8.68221 21.8103 9.58937 20.6978 9.8554L20.6975 9.85548C19.9072 10.0461 18.8882 9.95533 18.0223 9.6468C17.4432 9.43976 16.9654 9.15605 16.5865 8.74547C15.3271 7.38218 15.1251 5.00341 17.4265 2.90338L17.5007 2.8357L17.2365 1.96257C17.196 1.74403 17.2362 1.65835 17.2878 1.60639C17.3585 1.5353 17.4883 1.48353 17.7284 1.40823Z" fill="#FF385C"/>
<path fillRule="evenodd" clipRule="evenodd" d="M23.7368 35.9781C5.44433 35.923 3.29234 37.2377 7.91124 25.9012C13.7486 11.5573 3.96128 21.0438 2.85434 12.6358C2.63213 11.0203 4.91961 6.51515 6.15711 4.26469C6.24279 4.10888 6.44817 4.17844 6.41141 4.35238C5.56395 8.36269 1.12719 13.7455 8.38906 15.8479C10.2764 16.2021 11.7975 17.0366 11.1365 20.7761C10.1968 26.1138 5.53012 32.7819 8.49259 33.9942C11.24 35.12 19.2135 34.6713 23.4262 34.7028C24.0394 34.7106 24.4535 34.7185 25.0667 34.5689C27.408 33.9942 26.4604 31.6561 24.4933 30.2154C24.0872 29.9162 23.3864 29.8296 23.036 29.8139C20.8938 29.7352 19.8009 29.8611 17.3163 29.68C13.9955 29.4439 14.2503 27.6096 14.9352 26.2318C15.5563 24.8856 16.6951 22.7049 17.4278 20.6817C18.7259 17.076 18.1047 15.2102 16.4801 14.2025C14.537 13.0059 11.7816 12.8405 9.72695 12.5099C7.87939 12.2186 6.75652 11.7226 6.52557 9.28212C6.43797 8.34528 6.64503 7.40057 7.29008 6.68416C7.60066 6.33776 7.96699 6.1252 8.30943 5.85753C8.95448 5.35369 9.04208 4.73962 8.83503 4.12556C8.34925 2.70062 7.25823 1.81889 6.17517 1.88974C5.49827 1.93698 4.82136 2.35422 4.29576 3.24383C3.92943 4.04683 3.61885 5.25922 3.2127 6.14095C1.74739 9.28212 0.321903 12.439 2.44819 15.1866C-2.07515 13.2814 1.69961 6.76288 2.52783 4.44047C2.61543 4.19641 2.81452 3.48788 2.94194 3.24383C3.19677 2.75573 3.43568 2.33848 3.92943 1.85038C4.16834 1.6142 4.40725 1.41738 4.65412 1.25206C7.93514 -1.19632 12.785 5.25134 8.24572 7.45567C8.01477 7.56589 7.93514 7.67611 7.87939 7.90441C6.25481 14.8638 19.6895 8.17995 19.6098 17.6822C19.6019 18.4773 19.5063 18.989 19.2833 19.7606C17.6747 25.2084 13.2708 28.57 19.2753 28.6172C19.8647 28.6251 19.2851 28.6172 19.8744 28.6251C21.6583 28.6487 23.9598 28.3968 25.2021 29.2392C27.7584 30.9633 30.0281 35.9309 23.7368 35.9781Z" fill="#FF385C"/>
<path fillRule="evenodd" clipRule="evenodd" d="M5.86265 32.2538C5.70564 33.6873 6.0896 34.578 7.15 35.1288C7.37114 35.2437 7.6217 35.3438 7.90291 35.4309C7.90313 35.431 7.90334 35.4311 7.90356 35.4311C9.85239 36.0348 13.2727 36.017 18.5733 35.9895C20.0388 35.9818 21.6481 35.9735 23.4098 35.9773C23.4121 35.9773 23.4144 35.9773 23.4167 35.9773C23.5228 35.9775 23.6295 35.9778 23.7368 35.9781C24.365 35.9734 24.9079 35.9196 25.3736 35.8249C25.3742 35.8248 25.3748 35.8247 25.3754 35.8246C29.5667 34.9709 27.5074 30.8002 25.2098 29.2444C25.2089 29.2438 25.208 29.2431 25.2071 29.2425C25.2054 29.2414 25.2038 29.2403 25.2021 29.2392C24.6571 28.8696 23.9082 28.7107 23.0885 28.6467C23.0854 28.6464 23.0822 28.6462 23.079 28.6459C22.4043 28.5939 21.6822 28.6058 20.9867 28.6173C20.6037 28.6236 20.2289 28.6298 19.8744 28.6251C19.5798 28.6212 19.5773 28.6212 19.5749 28.6212C19.5724 28.6212 19.57 28.6212 19.2753 28.6172C18.4807 28.611 17.8684 28.5467 17.4078 28.4272C17.407 28.427 17.4063 28.4268 17.4056 28.4266C16.9069 28.297 16.5863 28.1025 16.4048 27.8468C16.3148 27.7201 16.2591 27.5784 16.2327 27.422C16.205 27.2575 16.2098 27.0767 16.2418 26.8803C16.2441 26.866 16.2466 26.8516 16.2492 26.8371C16.3764 26.133 16.8388 25.2327 17.3901 24.1591C17.843 23.2771 18.3561 22.2782 18.7926 21.175C18.7929 21.1742 18.7933 21.1734 18.7936 21.1725C18.9729 20.7192 19.1393 20.2482 19.2833 19.7606C19.5063 18.989 19.6019 18.4773 19.6098 17.6822C19.6314 15.1095 18.6623 13.7234 17.2697 12.9316C17.2683 12.9308 17.2669 12.93 17.2655 12.9292C15.9035 12.1566 14.1374 11.9512 12.4968 11.7605C11.5628 11.6519 10.6694 11.5481 9.91442 11.347C9.9132 11.3467 9.91198 11.3463 9.91076 11.346C8.68879 11.0198 7.83001 10.4382 7.7493 9.16789C7.74927 9.16743 7.74924 9.16698 7.74921 9.16652C7.72641 8.80491 7.76661 8.38754 7.87939 7.90441C7.92982 7.6979 7.99979 7.58801 8.18361 7.48734C8.18439 7.48691 8.18517 7.48648 8.18596 7.48606C8.20467 7.47587 8.22456 7.46577 8.24572 7.45567C8.5881 7.28941 8.87706 7.099 9.11731 6.8901C9.11743 6.89 9.11755 6.88989 9.11766 6.88979C10.1085 6.02798 10.2705 4.85138 9.93366 3.75574C9.93328 3.75451 9.9329 3.75327 9.93252 3.75204C9.41907 2.08766 7.75502 0.61118 6.0979 0.710555C6.09619 0.710658 6.09448 0.710762 6.09277 0.710868C5.60252 0.74123 5.11298 0.909647 4.65412 1.25206C4.40725 1.41738 4.16834 1.6142 3.92943 1.85038C3.64681 2.12976 3.44769 2.38593 3.28128 2.64546C3.25864 2.68077 3.23661 2.71615 3.21505 2.75165C3.11824 2.91108 3.03106 3.07312 2.94194 3.24383C2.8549 3.41054 2.73441 3.79401 2.63886 4.09809C2.59454 4.23915 2.55559 4.36313 2.52783 4.44047C2.41498 4.7569 2.24744 5.15123 2.05363 5.60117C2.05282 5.60306 2.05201 5.60494 2.05119 5.60683C2.02862 5.65923 2.0057 5.71237 1.98247 5.76623C0.836679 8.4226 -1.06053 12.821 1.66131 14.7541C1.88995 14.9165 2.15118 15.0615 2.44819 15.1866C1.86253 14.4298 1.54633 13.642 1.4262 12.8319C1.42579 12.8292 1.42539 12.8265 1.42499 12.8237C1.29063 11.9074 1.40675 10.9628 1.66718 10.0028C2.01172 8.73266 2.60883 7.43546 3.2127 6.14095C3.38969 5.75671 3.54853 5.30969 3.70174 4.86112C3.70202 4.86031 3.70229 4.8595 3.70257 4.85869C3.73061 4.77658 3.75846 4.69443 3.78621 4.6126C3.87776 4.34253 3.96811 4.07603 4.06002 3.82659C4.13697 3.61773 4.21501 3.42083 4.29576 3.24383C4.4298 3.01696 4.57368 2.82081 4.72489 2.65368C4.90121 2.45881 5.0875 2.30339 5.27977 2.18475C5.2962 2.17461 5.31266 2.16475 5.32917 2.15515C5.60358 1.99559 5.88938 1.90968 6.17517 1.88974C7.25823 1.81889 8.34925 2.70062 8.83503 4.12556C9.04208 4.73962 8.95448 5.35369 8.30943 5.85753C8.20889 5.93612 8.10628 6.00996 8.00364 6.08383C7.90114 6.1576 7.7986 6.23139 7.69802 6.30998C7.6957 6.31179 7.69338 6.31361 7.69107 6.31543C7.63379 6.36035 7.57718 6.40686 7.52158 6.45584C7.44195 6.52601 7.36442 6.60125 7.29008 6.68416C7.03601 6.96634 6.84989 7.28393 6.72296 7.62252C6.72153 7.62632 6.72012 7.63012 6.71871 7.63392C6.54182 8.11141 6.48214 8.6302 6.51519 9.14999C6.51799 9.19403 6.52146 9.23808 6.52557 9.28212C6.75652 11.7226 7.87939 12.2186 9.72695 12.5099C10.1096 12.5715 10.5165 12.6273 10.9379 12.6851C12.7796 12.9379 14.8988 13.2287 16.4801 14.2025C17.5725 14.8801 18.2112 15.9457 18.1178 17.6673C18.1178 17.6681 18.1177 17.6689 18.1177 17.6697C18.0904 18.1682 18.0018 18.7217 17.8452 19.3366C17.8445 19.3394 17.8437 19.3422 17.843 19.345C17.7365 19.7617 17.5988 20.2066 17.4278 20.6817C16.8836 22.1843 16.1155 23.7738 15.5017 25.0438C15.2891 25.4838 15.095 25.8855 14.9352 26.2318C14.7689 26.5664 14.6279 26.9278 14.5574 27.2867C14.4119 28.0266 14.5655 28.7559 15.4125 29.217C15.8469 29.4535 16.4638 29.6194 17.3163 29.68C18.0693 29.7349 18.6945 29.7616 19.2599 29.7743C19.262 29.7744 19.2641 29.7744 19.2662 29.7745C19.4705 29.779 19.667 29.7818 19.8589 29.7834C19.859 29.7834 19.859 29.7834 19.8591 29.7834C20.1845 29.7861 20.4967 29.7855 20.8115 29.7849C21.4892 29.7836 22.1785 29.7824 23.036 29.8139C23.3864 29.8296 24.0872 29.9162 24.4933 30.2154C24.5035 30.2228 24.5137 30.2303 24.5238 30.2378C24.5246 30.2384 24.5254 30.239 24.5262 30.2396C26.4708 31.6821 27.3949 33.9974 25.0667 34.5689C24.564 34.6916 24.1951 34.7084 23.7406 34.7061C23.7362 34.7061 23.7317 34.7061 23.7272 34.706C23.6402 34.7055 23.55 34.7044 23.4551 34.7031L23.4262 34.7028C22.4955 34.6958 21.3811 34.7123 20.1802 34.7301C15.9453 34.7927 10.633 34.8713 8.49259 33.9942C8.31422 33.9212 8.16351 33.8285 8.03797 33.7174C7.67946 33.4002 7.52631 32.9337 7.52079 32.3526C7.50797 31.0057 8.28801 29.0426 9.14225 26.8928C9.19794 26.7527 9.25394 26.6118 9.31006 26.4702C9.31014 26.47 9.31021 26.4698 9.31029 26.4696C10.052 24.598 10.8139 22.6087 11.1365 20.7761C11.7975 17.0366 10.2764 16.2021 8.38906 15.8479C7.5674 15.61 6.89551 15.3301 6.35124 15.015C5.54959 14.5508 5.02481 14.0102 4.70614 13.4146C4.53935 13.1028 4.42902 12.776 4.36501 12.4373C4.36447 12.4344 4.36393 12.4315 4.36339 12.4286C4.16039 11.3403 4.43402 10.1288 4.8484 8.89651C5.03386 8.34498 5.24752 7.78927 5.45925 7.23854C5.64504 6.75532 5.82935 6.27593 5.99184 5.80657C6.0171 5.73361 6.04183 5.6609 6.06596 5.58845C6.06636 5.58726 6.06675 5.58607 6.06715 5.58488C6.07065 5.57437 6.07413 5.56386 6.07761 5.55335C6.20793 5.15927 6.31999 4.77317 6.40145 4.39882C6.40482 4.38332 6.40814 4.36784 6.41141 4.35238C6.44817 4.17844 6.24279 4.10888 6.15711 4.26469C6.15154 4.27481 6.14596 4.28498 6.14035 4.2952C5.93336 4.67213 5.69788 5.11056 5.4502 5.58695C4.66926 7.08897 3.76694 8.96837 3.25365 10.4876C2.95346 11.376 2.78632 12.1413 2.85434 12.6358C2.90278 13.0038 2.96785 13.3375 3.0475 13.6404C3.05428 13.6662 3.06117 13.6917 3.06816 13.7171C3.10119 13.8368 3.13654 13.9516 3.17409 14.0617C3.2264 14.215 3.28297 14.3592 3.34345 14.4949C3.86839 15.6728 4.68766 16.2099 5.56722 16.5081C5.61326 16.5237 5.65946 16.5386 5.7058 16.553C6.15765 16.693 6.62202 16.7762 7.06777 16.856C7.40674 16.9168 7.73496 16.9756 8.03871 17.056C8.07817 17.0664 8.11721 17.0772 8.15581 17.0885C9.29832 17.4206 10.0531 18.1167 9.64203 20.5124C9.64197 20.5127 9.64191 20.5131 9.64185 20.5134C9.42544 21.7741 8.88633 23.5052 7.91124 25.9012C6.75566 28.7374 6.02389 30.7818 5.86265 32.2538Z" fill="#FF385C"/>
<path fillRule="evenodd" clipRule="evenodd" d="M6.11255 19.4117C6.80397 20.1958 6.87062 20.7026 6.97058 21.2253C6.01258 25.3594 -1.10161 33.2236 5.26284 34.4274C5.69603 34.9739 5.93761 35.3065 6.84563 35.647C5.0879 35.647 4.10491 35.5282 3.14691 35.1481C-2.66773 32.788 4.87131 24.116 6.11255 19.4117Z" fill="#FF385C"/>
<path fillRule="evenodd" clipRule="evenodd" d="M3.67415 33.8353C1.43766 32.3419 3.28766 28.8552 5.0128 25.6039C5.86525 23.9973 6.68722 22.4481 6.97058 21.2253C6.96555 21.199 6.96061 21.1728 6.95566 21.1465C6.86233 20.6509 6.76918 20.1563 6.11255 19.4117C5.9903 19.875 5.80698 20.3768 5.58134 20.9073C5.49322 21.1144 5.39865 21.3259 5.29875 21.5413C4.88692 22.4288 4.38443 23.3807 3.86961 24.356C1.58188 28.6898 -0.949575 33.4854 3.14691 35.1481C3.42359 35.2579 3.70236 35.3459 4.00127 35.4155C4.31842 35.4894 4.65826 35.5426 5.04235 35.5792C5.54967 35.6276 6.13419 35.647 6.84563 35.647C5.96738 35.3177 5.71259 34.9957 5.30487 34.4805C5.29105 34.463 5.27705 34.4453 5.26284 34.4274C4.59599 34.3013 4.07711 34.102 3.68362 33.8416C3.68045 33.8395 3.6773 33.8374 3.67415 33.8353Z" fill="#FF385C"/>
<path d="M40.4999 25.0588L37.324 19.9857C39.0238 19.0332 39.9631 17.3495 39.9631 15.0456C39.9631 11.5232 37.5477 9.52942 33.3429 9.52942H26.0294V25.0588H30.6815V20.8719H33.1417L35.2217 25.0588H40.4999ZM30.6815 13.0739H33.3429C34.7296 13.0739 35.5348 13.8271 35.5348 15.1785C35.5348 16.5741 34.7296 17.3274 33.3429 17.3274H30.6815V13.0739Z" fill="#30313B"/>
<path d="M42.2357 9.52942V25.0588H55.2748V21.5143H46.8877V19.0553H54.2907V15.5108H46.8877V13.0739H55.0511V9.52942H42.2357Z" fill="#30313B"/>
<path d="M56.9884 9.52942V13.1182H64.5032L56.72 22.1568V25.0588H70.855V21.47H62.9153L70.6985 12.4536V9.52942H56.9884Z" fill="#30313B"/>
<path d="M84.156 25.0588H89.1212L82.6576 9.52942H77.8713L71.184 25.0588H75.9703L76.9096 22.5777H83.2391L84.156 25.0588ZM78.2068 19.2104L80.1302 14.1373L82.009 19.2104H78.2068Z" fill="#30313B"/>
<path d="M104.735 25.0588L101.559 19.9857C103.259 19.0332 104.199 17.3495 104.199 15.0456C104.199 11.5232 101.783 9.52942 97.5783 9.52942H90.2648V25.0588H94.9168V20.8719H97.377L99.457 25.0588H104.735ZM94.9168 13.0739H97.5783C98.965 13.0739 99.7702 13.8271 99.7702 15.1785C99.7702 16.5741 98.965 17.3274 97.5783 17.3274H94.9168V13.0739Z" fill="#30313B"/>
<path d="M31.7624 34.7361C31.5171 34.7361 31.3235 34.9258 31.3235 35.1789C31.3235 35.4446 31.5171 35.647 31.7624 35.647C32.0077 35.647 32.2142 35.4446 32.2142 35.1789C32.2142 34.9258 32.0077 34.7361 31.7624 34.7361Z" fill="#30313B"/>
<path d="M39.8392 30.2444L40.149 29.8648C39.5552 29.2828 38.7161 28.9412 37.7479 28.9412C35.8503 28.9412 34.4561 30.3203 34.4561 32.2561C34.4561 34.192 35.8503 35.5585 37.7479 35.5585C38.7936 35.5585 39.6843 35.1662 40.2781 34.483L39.9554 34.1414C39.439 34.7361 38.6645 35.065 37.7608 35.065C36.1472 35.065 34.9854 33.9136 34.9854 32.2435C34.9854 30.5987 36.1472 29.4473 37.7608 29.4473C38.5999 29.4473 39.297 29.7509 39.8392 30.2444Z" fill="#30313B"/>
<path d="M45.5228 28.9412C43.6122 28.9412 42.2051 30.3076 42.2051 32.2435C42.2051 34.192 43.6122 35.5585 45.5228 35.5585C47.4462 35.5585 48.8404 34.192 48.8404 32.2435C48.8404 30.3076 47.4462 28.9412 45.5228 28.9412ZM45.5228 29.4473C47.1493 29.4473 48.3112 30.5987 48.3112 32.2435C48.3112 33.9136 47.1493 35.065 45.5228 35.065C43.9091 35.065 42.7344 33.9136 42.7344 32.2435C42.7344 30.5987 43.9091 29.4473 45.5228 29.4473Z" fill="#30313B"/>
<path d="M60.1792 28.9412C58.798 28.9665 57.8427 29.6244 57.4296 30.8517C57.1972 29.6497 56.3065 28.9412 54.951 28.9412C53.6214 28.9665 52.679 29.5611 52.2401 30.6872V28.9538H51.7108V35.5458H52.2401V32.3194C52.2401 30.5987 53.1954 29.5105 54.809 29.4726C56.1516 29.4726 56.9648 30.2697 56.9648 31.6235V35.5458H57.4941V32.3194C57.4941 30.5987 58.4365 29.5105 60.0501 29.4726C61.4056 29.4726 62.206 30.2697 62.206 31.6235V35.5458H62.7353V31.5223C62.7353 29.9154 61.7929 28.9412 60.1792 28.9412Z" fill="#30313B"/>
</svg>
