<svg width="16" height="16" viewBox="0 0 16 16" fill="none" xmlns="http://www.w3.org/2000/svg">
<path fillRule="evenodd" clipRule="evenodd" d="M8 1.45455C4.38505 1.45455 1.45455 4.38505 1.45455 8C1.45455 11.615 4.38505 14.5455 8 14.5455C11.615 14.5455 14.5455 11.615 14.5455 8C14.5455 4.38505 11.615 1.45455 8 1.45455ZM0 8C0 3.58172 3.58172 0 8 0C12.4183 0 16 3.58172 16 8C16 12.4183 12.4183 16 8 16C3.58172 16 0 12.4183 0 8Z" fill="#8B8DA0"/>
<path fillRule="evenodd" clipRule="evenodd" d="M7.99998 2.90918C8.40164 2.90918 8.72725 3.23479 8.72725 3.63645V7.55061L11.2343 8.80414C11.5936 8.98377 11.7392 9.42062 11.5596 9.77988C11.3799 10.1391 10.9431 10.2848 10.5838 10.1051L7.67473 8.65058C7.42834 8.52739 7.27271 8.27556 7.27271 8.00009V3.63645C7.27271 3.23479 7.59832 2.90918 7.99998 2.90918Z" fill="#8B8DA0"/>
</svg>
