<svg width="14" height="14" viewBox="0 0 14 14" fill="none" xmlns="http://www.w3.org/2000/svg">
<path d="M11.6666 0.333252H2.33325C1.80282 0.333252 1.29411 0.543966 0.919038 0.919038C0.543966 1.29411 0.333252 1.80282 0.333252 2.33325V11.6666C0.333252 12.197 0.543966 12.7057 0.919038 13.0808C1.29411 13.4559 1.80282 13.6666 2.33325 13.6666H11.6666C11.7762 13.6651 11.8855 13.6539 11.9933 13.6333L12.1933 13.5866H12.2733L12.5199 13.4933L12.6066 13.4466C12.6733 13.4066 12.7466 13.3733 12.8133 13.3266C12.9023 13.2611 12.9869 13.1898 13.0666 13.1133L13.1133 13.0533C13.1787 12.9869 13.2389 12.9156 13.2933 12.8399L13.3533 12.7533C13.3998 12.679 13.44 12.601 13.4733 12.5199C13.4915 12.4879 13.5072 12.4545 13.5199 12.4199C13.5533 12.3399 13.5733 12.2533 13.5999 12.1666V12.0666C13.6377 11.9363 13.6601 11.8021 13.6666 11.6666V2.33325C13.6666 1.80282 13.4559 1.29411 13.0808 0.919038C12.7057 0.543966 12.197 0.333252 11.6666 0.333252ZM2.33325 12.3333C2.15644 12.3333 1.98687 12.263 1.86185 12.138C1.73682 12.013 1.66659 11.8434 1.66659 11.6666V8.79325L3.85992 6.59325C3.92189 6.53077 3.99563 6.48117 4.07687 6.44732C4.15811 6.41348 4.24524 6.39605 4.33325 6.39605C4.42126 6.39605 4.5084 6.41348 4.58964 6.44732C4.67088 6.48117 4.74461 6.53077 4.80659 6.59325L10.5399 12.3333H2.33325ZM12.3333 11.6666C12.3326 11.7488 12.3168 11.8301 12.2866 11.9066C12.2713 11.9391 12.2535 11.9703 12.2333 11.9999C12.2154 12.0281 12.1954 12.0549 12.1733 12.0799L8.60659 8.51325L9.19325 7.92659C9.25523 7.8641 9.32896 7.8145 9.4102 7.78066C9.49144 7.74681 9.57858 7.72939 9.66659 7.72939C9.75459 7.72939 9.84173 7.74681 9.92297 7.78066C10.0042 7.8145 10.0779 7.8641 10.1399 7.92659L12.3333 10.1266V11.6666ZM12.3333 8.23992L11.0799 6.99992C10.6984 6.63791 10.1925 6.4361 9.66659 6.4361C9.14065 6.4361 8.63477 6.63791 8.25325 6.99992L7.66659 7.58659L5.74659 5.66659C5.36507 5.30458 4.85918 5.10277 4.33325 5.10277C3.80732 5.10277 3.30144 5.30458 2.91992 5.66659L1.66659 6.90659V2.33325C1.66659 2.15644 1.73682 1.98687 1.86185 1.86185C1.98687 1.73682 2.15644 1.66659 2.33325 1.66659H11.6666C11.8434 1.66659 12.013 1.73682 12.138 1.86185C12.263 1.98687 12.3333 2.15644 12.3333 2.33325V8.23992Z" fill="#8B8DA0"/>
</svg>
