<svg width="16" height="16" viewBox="0 0 16 16" fill="none" xmlns="http://www.w3.org/2000/svg">
<path fill-rule="evenodd" clip-rule="evenodd" d="M8 1.45455C4.38505 1.45455 1.45455 4.38505 1.45455 8C1.45455 11.615 4.38505 14.5455 8 14.5455C11.615 14.5455 14.5455 11.615 14.5455 8C14.5455 4.38505 11.615 1.45455 8 1.45455ZM0 8C0 3.58172 3.58172 0 8 0C12.4183 0 16 3.58172 16 8C16 12.4183 12.4183 16 8 16C3.58172 16 0 12.4183 0 8Z" fill="#FF385C"/>
<path fill-rule="evenodd" clip-rule="evenodd" d="M8.00001 4.36377C8.40167 4.36377 8.72728 4.68938 8.72728 5.09104V8.00013C8.72728 8.40179 8.40167 8.72741 8.00001 8.72741C7.59835 8.72741 7.27274 8.40179 7.27274 8.00013V5.09104C7.27274 4.68938 7.59835 4.36377 8.00001 4.36377Z" fill="#FF385C"/>
<path fill-rule="evenodd" clip-rule="evenodd" d="M7.27274 10.9089C7.27274 10.5073 7.59835 10.1816 8.00001 10.1816H8.00728C8.40894 10.1816 8.73455 10.5073 8.73455 10.9089C8.73455 11.3106 8.40894 11.6362 8.00728 11.6362H8.00001C7.59835 11.6362 7.27274 11.3106 7.27274 10.9089Z" fill="#FF385C"/>
</svg>
