<svg width="16" height="16" viewBox="0 0 16 16" fill="none" xmlns="http://www.w3.org/2000/svg">
<path fillRule="evenodd" clipRule="evenodd" d="M8 1.45455C4.38505 1.45455 1.45455 4.38505 1.45455 8C1.45455 11.615 4.38505 14.5455 8 14.5455C11.615 14.5455 14.5455 11.615 14.5455 8C14.5455 4.38505 11.615 1.45455 8 1.45455ZM0 8C0 3.58172 3.58172 0 8 0C12.4183 0 16 3.58172 16 8C16 12.4183 12.4183 16 8 16C3.58172 16 0 12.4183 0 8Z" fill="#8B8DA0"/>
<path fillRule="evenodd" clipRule="evenodd" d="M10.4713 5.52851C10.7317 5.78886 10.7317 6.21097 10.4713 6.47132L6.47132 10.4713C6.21097 10.7317 5.78886 10.7317 5.52851 10.4713C5.26816 10.211 5.26816 9.78886 5.52851 9.52851L9.52851 5.52851C9.78886 5.26816 10.211 5.26816 10.4713 5.52851Z" fill="#8B8DA0"/>
<path fillRule="evenodd" clipRule="evenodd" d="M5.52851 5.52851C5.78886 5.26816 6.21097 5.26816 6.47132 5.52851L10.4713 9.52851C10.7317 9.78886 10.7317 10.211 10.4713 10.4713C10.211 10.7317 9.78886 10.7317 9.52851 10.4713L5.52851 6.47132C5.26816 6.21097 5.26816 5.78886 5.52851 5.52851Z" fill="#8B8DA0"/>
</svg>
