<svg width="16" height="16" viewBox="0 0 16 16" fill="none" xmlns="http://www.w3.org/2000/svg">
<path d="M0.999896 8.00189H0.9999V8C0.9999 6.14348 1.7374 4.36301 3.05015 3.05025C3.70016 2.40024 4.47184 1.88463 5.32112 1.53284C6.17039 1.18106 7.08065 1 7.9999 1C9.85641 1 11.6369 1.7375 12.9496 3.05025C14.2624 4.36301 14.9999 6.14348 14.9999 8C14.9999 9.85651 14.2624 11.637 12.9496 12.9497C11.6369 14.2625 9.85641 15 7.9999 15H1.2499H1.23938L1.22887 15.0004C1.17937 15.0025 1.13036 14.9899 1.08808 14.964C1.04824 14.9397 1.01606 14.9048 0.995108 14.8632C0.978603 14.8198 0.974474 14.7727 0.983275 14.727C0.992541 14.6789 1.01573 14.6346 1.04996 14.5996C1.05024 14.5993 1.05052 14.599 1.05081 14.5987L2.54845 13.1011L2.86967 12.7798L2.58064 12.4294C1.55301 11.1833 0.993781 9.617 0.999896 8.00189ZM7.9999 14.5H8.00029C9.50404 14.4988 10.9609 13.9763 12.1225 13.0214C13.2842 12.0666 14.0789 10.7385 14.3712 9.26344C14.6635 7.78838 14.4353 6.2576 13.7255 4.93191C13.0157 3.60622 11.8683 2.56764 10.4786 1.99312C9.08893 1.41859 7.54305 1.34366 6.10434 1.7811C4.66562 2.21854 3.42308 3.14128 2.58841 4.39211C1.75375 5.64294 1.37859 7.14448 1.52685 8.64089C1.67509 10.137 2.33738 11.5355 3.40092 12.5981C3.44709 12.6449 3.47299 12.708 3.47299 12.7738C3.47299 12.8396 3.44701 12.9028 3.4007 12.9496C3.40056 12.9497 3.40043 12.9499 3.4003 12.95L2.70385 13.6464L1.85029 14.5H3.0574H7.9999Z" stroke="#555768"/>
</svg>
