<svg width="16" height="16" viewBox="0 0 16 16" fill="none" xmlns="http://www.w3.org/2000/svg">
<circle cx="8" cy="8" r="8" fill="url(#paint0_linear_2483_57585)"/>
<path d="M4.80716 12.6282C5.09994 12.3988 5.15136 11.9755 4.92202 11.6828L3.73635 10.1691C3.507 9.87636 3.08374 9.82493 2.79096 10.0543V10.0543C2.49819 10.2836 2.44676 10.7069 2.6761 10.9997L3.86178 12.5133C4.09112 12.8061 4.51438 12.8575 4.80716 12.6282V12.6282Z" fill="white"/>
<path d="M11.1793 12.6282C10.8865 12.3988 10.8351 11.9755 11.0644 11.6828L12.2501 10.1691C12.4794 9.87636 12.9027 9.82493 13.1955 10.0543V10.0543C13.4883 10.2836 13.5397 10.7069 13.3103 10.9997L12.1247 12.5133C11.8953 12.8061 11.4721 12.8575 11.1793 12.6282V12.6282Z" fill="white"/>
<path fill-rule="evenodd" clip-rule="evenodd" d="M7.74323 5.50031V8.88363C7.74323 9.4517 7.43518 10.7948 6.53812 11.2944L6.51725 11.306C5.82409 11.6893 5.04785 11.2831 4.55999 10.6591C4.06879 10.0309 4.31557 9.16957 4.88334 8.6096C5.45693 8.0439 5.59842 7.34905 5.78479 5.83924L5.96719 3.87513H5.96947C6.00199 3.36176 6.38615 2.95654 6.85526 2.95654C7.32439 2.95654 7.70854 3.36177 7.74106 3.87515H7.74323V3.9348C7.74327 3.93845 7.74329 3.94212 7.74329 3.94578C7.74329 3.94945 7.74327 3.95311 7.74323 3.95677V4.43305V5.50031Z" fill="white"/>
<path fill-rule="evenodd" clip-rule="evenodd" d="M8.24321 5.50031V8.88363C8.24321 9.4517 8.55126 10.7948 9.44832 11.2944L9.46919 11.306C10.1623 11.6893 10.9386 11.2831 11.4265 10.6591C11.9176 10.0309 11.6709 9.16957 11.1031 8.6096C10.5295 8.0439 10.388 7.34904 10.2016 5.83921L10.0192 3.87513H10.017C9.98446 3.36176 9.6003 2.95654 9.13119 2.95654C8.66206 2.95654 8.27791 3.36177 8.24539 3.87515H8.24321V3.93593C8.24318 3.93921 8.24316 3.94249 8.24316 3.94578C8.24316 3.94907 8.24318 3.95236 8.24321 3.95564V4.43305V5.50031Z" fill="white"/>
<defs>
<linearGradient id="paint0_linear_2483_57585" x1="0.782609" y1="4.69565" x2="15.5652" y2="9.73913" gradientUnits="userSpaceOnUse">
<stop stop-color="#1A68F4"/>
<stop offset="1" stop-color="#2D9DFA"/>
</linearGradient>
</defs>
</svg>
