<svg width="14" height="14" viewBox="0 0 14 14" fill="none" xmlns="http://www.w3.org/2000/svg">
<path d="M13.4795 12.5428L11.0076 10.089C11.9671 8.89178 12.4318 7.37212 12.3061 5.84254C12.1803 4.31295 11.4738 2.88971 10.3317 1.86545C9.18962 0.841184 7.6988 0.293763 6.16579 0.335744C4.63278 0.377724 3.1741 1.00592 2.08969 2.09115C1.00528 3.17638 0.377569 4.63617 0.33562 6.17034C0.293671 7.70452 0.840677 9.19647 1.86416 10.3394C2.88764 11.4824 4.30981 12.1895 5.83823 12.3153C7.36666 12.4411 8.88516 11.9761 10.0815 11.0159L12.5334 13.4696C12.5953 13.5321 12.669 13.5817 12.7502 13.6155C12.8314 13.6494 12.9185 13.6668 13.0064 13.6668C13.0944 13.6668 13.1815 13.6494 13.2627 13.6155C13.3439 13.5817 13.4176 13.5321 13.4795 13.4696C13.5996 13.3453 13.6667 13.1791 13.6667 13.0062C13.6667 12.8333 13.5996 12.6671 13.4795 12.5428V12.5428ZM6.34373 11.0159C5.4213 11.0159 4.51959 10.7421 3.75261 10.2293C2.98564 9.71639 2.38786 8.98744 2.03486 8.13457C1.68186 7.28171 1.5895 6.34325 1.76946 5.43785C1.94941 4.53246 2.39361 3.7008 3.04586 3.04805C3.69812 2.39529 4.52915 1.95076 5.43385 1.77067C6.33856 1.59057 7.27631 1.68301 8.12853 2.03627C8.98074 2.38954 9.70915 2.98778 10.2216 3.75533C10.7341 4.52289 11.0076 5.42529 11.0076 6.34842C11.0076 7.5863 10.5163 8.77348 9.64161 9.6488C8.76696 10.5241 7.58068 11.0159 6.34373 11.0159V11.0159Z" fill="#9FA1B2"/>
</svg>
