<svg width="16" height="16" viewBox="0 0 16 16" fill="none" xmlns="http://www.w3.org/2000/svg">
<path d="M14.1136 1.37325C13.6357 1.29094 13.1518 1.24857 12.6669 1.24658C11.0124 1.24523 9.39247 1.71963 8.00012 2.61325C6.60419 1.73137 4.98449 1.26861 3.33335 1.27992C2.84844 1.28191 2.36453 1.32427 1.88665 1.40658C1.73012 1.43357 1.58837 1.51556 1.48692 1.63778C1.38547 1.76 1.331 1.91443 1.33331 2.07325V10.0733C1.33188 10.1712 1.35206 10.2683 1.39241 10.3575C1.43276 10.4468 1.49229 10.5261 1.56676 10.5898C1.64124 10.6534 1.72882 10.6999 1.82329 10.7258C1.91776 10.7518 2.01678 10.7566 2.11333 10.7399C3.06869 10.5745 4.0475 10.602 4.9921 10.8206C5.93669 11.0393 6.82797 11.4448 7.61344 12.0133L7.69344 12.0599H7.76678C7.84071 12.0907 7.92002 12.1066 8.00012 12.1066C8.08021 12.1066 8.15952 12.0907 8.23346 12.0599H8.30679L8.38679 12.0133C9.16678 11.4321 10.0555 11.0135 11.0003 10.7822C11.9451 10.5508 12.9267 10.5115 13.8869 10.6666C13.9834 10.6832 14.0825 10.6784 14.1769 10.6525C14.2714 10.6265 14.359 10.5801 14.4335 10.5164C14.5079 10.4528 14.5675 10.3735 14.6078 10.2842C14.6482 10.1949 14.6684 10.0979 14.6669 9.99992V1.99992C14.66 1.84802 14.6013 1.70306 14.5007 1.58908C14.4 1.47509 14.2635 1.39894 14.1136 1.37325ZM7.33344 10.2333C6.1 9.58438 4.72706 9.24573 3.33335 9.24658H2.66667V2.57992C2.88871 2.56712 3.11131 2.56712 3.33335 2.57992C4.75564 2.57835 6.14689 2.99571 7.33344 3.77992V10.2333ZM13.3336 9.27325H12.6669C11.2732 9.27239 9.90024 9.61104 8.6668 10.2599V3.77992C9.85335 2.99571 11.2446 2.57835 12.6669 2.57992C12.8889 2.56712 13.1115 2.56712 13.3336 2.57992V9.27325ZM14.1136 12.0399C13.6357 11.9576 13.1518 11.9152 12.6669 11.9133C11.0124 11.9119 9.39247 12.3863 8.00012 13.2799C6.60776 12.3863 4.98781 11.9119 3.33335 11.9133C2.84844 11.9152 2.36453 11.9576 1.88665 12.0399C1.79987 12.0537 1.71667 12.0845 1.64182 12.1305C1.56698 12.1766 1.50198 12.2369 1.45056 12.3082C1.39913 12.3794 1.3623 12.4602 1.34218 12.5457C1.32206 12.6312 1.31904 12.7199 1.33331 12.8066C1.36719 12.9797 1.4683 13.1323 1.61451 13.2311C1.76071 13.3298 1.94008 13.3665 2.11333 13.3333C3.06869 13.1678 4.0475 13.1953 4.9921 13.414C5.93669 13.6327 6.82797 14.0382 7.61344 14.6066C7.72635 14.687 7.86151 14.7302 8.00012 14.7302C8.13872 14.7302 8.27388 14.687 8.38679 14.6066C9.17226 14.0382 10.0635 13.6327 11.0081 13.414C11.9527 13.1953 12.9315 13.1678 13.8869 13.3333C14.0602 13.3665 14.2395 13.3298 14.3857 13.2311C14.5319 13.1323 14.633 12.9797 14.6669 12.8066C14.6812 12.7199 14.6782 12.6312 14.6581 12.5457C14.6379 12.4602 14.6011 12.3794 14.5497 12.3082C14.4983 12.2369 14.4333 12.1766 14.3584 12.1305C14.2836 12.0845 14.2004 12.0537 14.1136 12.0399Z" fill="#8B8DA0"/>
</svg>
