<svg width="20" height="20" viewBox="0 0 20 20" fill="none" xmlns="http://www.w3.org/2000/svg">
<path d="M17.05 8.02493C16.933 6.80736 16.5027 5.64083 15.801 4.63895C15.0993 3.63706 14.1501 2.83396 13.0458 2.30784C11.9416 1.78173 10.7199 1.55053 9.49976 1.63677C8.27962 1.723 7.10261 2.12373 6.08333 2.79993C5.20766 3.38547 4.47254 4.15768 3.93079 5.06109C3.38903 5.9645 3.05408 6.97669 2.95 8.02493C2.8479 9.06631 2.97889 10.1174 3.33348 11.1018C3.68806 12.0863 4.25733 12.9795 5 13.7166L9.41667 18.1416C9.49414 18.2197 9.5863 18.2817 9.68785 18.324C9.7894 18.3663 9.89832 18.3881 10.0083 18.3881C10.1183 18.3881 10.2273 18.3663 10.3288 18.324C10.4304 18.2817 10.5225 18.2197 10.6 18.1416L15 13.7166C15.7427 12.9795 16.3119 12.0863 16.6665 11.1018C17.0211 10.1174 17.1521 9.06631 17.05 8.02493V8.02493ZM13.8333 12.5416L10 16.3749L6.16667 12.5416C5.60174 11.9766 5.169 11.2935 4.89956 10.5414C4.63011 9.78926 4.53065 8.98676 4.60833 8.1916C4.68652 7.38418 4.94314 6.60423 5.35964 5.90813C5.77615 5.21204 6.34213 4.61719 7.01667 4.1666C7.90079 3.5793 8.93859 3.26601 10 3.26601C11.0614 3.26601 12.0992 3.5793 12.9833 4.1666C13.6558 4.61545 14.2206 5.20767 14.637 5.90071C15.0534 6.59376 15.3111 7.37043 15.3917 8.17493C15.4719 8.97279 15.3737 9.7785 15.1042 10.5337C14.8346 11.2889 14.4006 11.9748 13.8333 12.5416V12.5416ZM10 4.99993C9.25832 4.99993 8.5333 5.21987 7.91661 5.63192C7.29993 6.04398 6.81928 6.62965 6.53545 7.31487C6.25162 8.00009 6.17736 8.75409 6.32206 9.48152C6.46675 10.2089 6.8239 10.8771 7.34835 11.4016C7.8728 11.926 8.54098 12.2832 9.26841 12.4279C9.99584 12.5726 10.7498 12.4983 11.4351 12.2145C12.1203 11.9307 12.706 11.45 13.118 10.8333C13.5301 10.2166 13.75 9.49161 13.75 8.74993C13.7478 7.75605 13.352 6.8035 12.6492 6.10071C11.9464 5.39793 10.9939 5.00213 10 4.99993V4.99993ZM10 10.8333C9.58796 10.8333 9.18516 10.7111 8.84256 10.4822C8.49996 10.2532 8.23293 9.92787 8.07525 9.54719C7.91757 9.16651 7.87631 8.74762 7.9567 8.34349C8.03708 7.93937 8.2355 7.56815 8.52686 7.27679C8.81822 6.98543 9.18943 6.78701 9.59356 6.70663C9.99769 6.62624 10.4166 6.6675 10.7973 6.82518C11.1779 6.98287 11.5033 7.24989 11.7322 7.59249C11.9611 7.9351 12.0833 8.33789 12.0833 8.74993C12.0833 9.30247 11.8638 9.83237 11.4731 10.2231C11.0824 10.6138 10.5525 10.8333 10 10.8333V10.8333Z" fill="#30313B"/>
</svg>
