<svg width="20" height="20" viewBox="0 0 20 20" fill="none" xmlns="http://www.w3.org/2000/svg">
<path d="M9.99995 0C8.05674 0.00368884 6.15654 0.571902 4.5308 1.63543C2.90505 2.69896 1.62394 4.21189 0.843504 5.98996C0.0630666 7.76803 -0.183011 9.73448 0.135243 11.6498C0.453498 13.5651 1.32235 15.3466 2.63597 16.7773C3.57417 17.7934 4.71285 18.6044 5.98026 19.159C7.24766 19.7137 8.61631 20 9.99995 20C11.3836 20 12.7522 19.7137 14.0197 19.159C15.2871 18.6044 16.4257 17.7934 17.3639 16.7773C18.6776 15.3466 19.5464 13.5651 19.8647 11.6498C20.1829 9.73448 19.9368 7.76803 19.1564 5.98996C18.376 4.21189 17.0949 2.69896 15.4691 1.63543C13.8434 0.571902 11.9432 0.00368884 9.99995 0ZM9.99995 18.0186C7.92448 18.0155 5.93114 17.2081 4.43939 15.7663C4.8923 14.6647 5.66275 13.7225 6.65285 13.0594C7.64295 12.3963 8.808 12.0422 9.99995 12.0422C11.1919 12.0422 12.357 12.3963 13.3471 13.0594C14.3372 13.7225 15.1076 14.6647 15.5605 15.7663C14.0688 17.2081 12.0754 18.0155 9.99995 18.0186ZM7.99615 8.00828C7.99615 7.61231 8.11367 7.22523 8.33385 6.89599C8.55403 6.56675 8.86698 6.31014 9.23313 6.15861C9.59928 6.00707 10.0022 5.96743 10.3909 6.04468C10.7796 6.12193 11.1366 6.31261 11.4169 6.5926C11.6971 6.87259 11.8879 7.22933 11.9653 7.61769C12.0426 8.00606 12.0029 8.4086 11.8512 8.77444C11.6996 9.14027 11.4427 9.45295 11.1132 9.67294C10.7837 9.89293 10.3963 10.0103 9.99995 10.0103C9.46851 10.0103 8.95884 9.79941 8.58305 9.42395C8.20726 9.04849 7.99615 8.53926 7.99615 8.00828ZM16.9231 14.0145C16.0279 12.4847 14.6502 11.2947 13.0057 10.631C13.5158 10.053 13.8482 9.34031 13.963 8.5783C14.0777 7.8163 13.97 7.03739 13.6526 6.33504C13.3353 5.6327 12.8219 5.03676 12.174 4.61874C11.5261 4.20071 10.7712 3.97836 9.99995 3.97836C9.2287 3.97836 8.47383 4.20071 7.82592 4.61874C7.17801 5.03676 6.66459 5.6327 6.34727 6.33504C6.02994 7.03739 5.9222 7.8163 6.03696 8.5783C6.15172 9.34031 6.48411 10.053 6.99425 10.631C5.34972 11.2947 3.97197 12.4847 3.0768 14.0145C2.36339 12.8003 1.98645 11.4183 1.98473 10.0103C1.98473 7.88642 2.82919 5.84948 4.33234 4.34764C5.83548 2.8458 7.87418 2.00207 9.99995 2.00207C12.1257 2.00207 14.1644 2.8458 15.6676 4.34764C17.1707 5.84948 18.0152 7.88642 18.0152 10.0103C18.0135 11.4183 17.6365 12.8003 16.9231 14.0145Z" fill="#8B8DA0"/>
</svg>
