<svg width="22" height="22" viewBox="0 0 22 22" fill="none" xmlns="http://www.w3.org/2000/svg">
<circle cx="11" cy="11" r="11" fill="#2196F3"/>
<path d="M16.6383 6.97512C16.5602 6.89636 16.4672 6.83385 16.3648 6.79119C16.2624 6.74853 16.1526 6.72656 16.0417 6.72656C15.9307 6.72656 15.8209 6.74853 15.7185 6.79119C15.6161 6.83385 15.5232 6.89636 15.4451 6.97512L9.18501 13.2436L6.55494 10.6051C6.47383 10.5268 6.37809 10.4652 6.27318 10.4238C6.16826 10.3825 6.05623 10.3622 5.94348 10.3642C5.83074 10.3661 5.71947 10.3902 5.61605 10.4352C5.51263 10.4801 5.41908 10.545 5.34073 10.6261C5.26239 10.7072 5.20078 10.803 5.15944 10.9079C5.11809 11.0128 5.09782 11.1248 5.09977 11.2376C5.10172 11.3503 5.12586 11.4616 5.17081 11.565C5.21576 11.6684 5.28064 11.762 5.36174 11.8403L8.58841 15.067C8.66652 15.1458 8.75946 15.2083 8.86185 15.2509C8.96425 15.2936 9.07408 15.3155 9.18501 15.3155C9.29593 15.3155 9.40576 15.2936 9.50816 15.2509C9.61055 15.2083 9.70349 15.1458 9.7816 15.067L16.6383 8.21032C16.7236 8.13164 16.7916 8.03614 16.8382 7.92984C16.8847 7.82355 16.9088 7.70876 16.9088 7.59272C16.9088 7.47668 16.8847 7.36189 16.8382 7.25559C16.7916 7.1493 16.7236 7.0538 16.6383 6.97512Z" fill="white"/>
</svg>
