<svg width="18" height="18" viewBox="0 0 18 18" fill="none" xmlns="http://www.w3.org/2000/svg">
<path fill-rule="evenodd" clip-rule="evenodd" d="M9 1.63636C4.93318 1.63636 1.63636 4.93318 1.63636 9C1.63636 13.0668 4.93318 16.3636 9 16.3636C13.0668 16.3636 16.3636 13.0668 16.3636 9C16.3636 4.93318 13.0668 1.63636 9 1.63636ZM0 9C0 4.02944 4.02944 0 9 0C13.9706 0 18 4.02944 18 9C18 13.9706 13.9706 18 9 18C4.02944 18 0 13.9706 0 9Z" fill="#FAFAFA"/>
<path fill-rule="evenodd" clip-rule="evenodd" d="M11.7803 6.21967C12.0732 6.51256 12.0732 6.98744 11.7803 7.28033L7.28033 11.7803C6.98744 12.0732 6.51256 12.0732 6.21967 11.7803C5.92678 11.4874 5.92678 11.0126 6.21967 10.7197L10.7197 6.21967C11.0126 5.92678 11.4874 5.92678 11.7803 6.21967Z" fill="#FAFAFA"/>
<path fill-rule="evenodd" clip-rule="evenodd" d="M6.21967 6.21967C6.51256 5.92678 6.98744 5.92678 7.28033 6.21967L11.7803 10.7197C12.0732 11.0126 12.0732 11.4874 11.7803 11.7803C11.4874 12.0732 11.0126 12.0732 10.7197 11.7803L6.21967 7.28033C5.92678 6.98744 5.92678 6.51256 6.21967 6.21967Z" fill="#FAFAFA"/>
</svg>
